<svg xmlns="http://www.w3.org/2000/svg" viewBox="0 0 512 512" role="img" aria-labelledby="title desc">
  <title id="title">Icon Studio mark</title>
  <desc id="desc">A rounded purple tile containing a white emblem and a coral accent tile.</desc>
  <rect width="512" height="512" rx="128" fill="#7257E8"/>
  <path fill="#FFFFFF" d="M142 132h228a30 30 0 0 1 30 30v188a30 30 0 0 1-30 30H142a30 30 0 0 1-30-30V162a30 30 0 0 1 30-30Zm26 68v112h176V200H168Z"/>
  <path fill="#FFFFFF" d="m256 215 43 41-43 41-43-41 43-41Z"/>
  <circle cx="372" cy="372" r="66" fill="#F08A68"/>
  <path fill="#FFFFFF" d="M339 372h66M372 339v66" stroke="#FFFFFF" stroke-width="22" stroke-linecap="round"/>
</svg>
